<svg width="574" height="110" viewBox="0 0 574 110" fill="none" xmlns="http://www.w3.org/2000/svg">
<path d="M552.94 108V3.03906H573.738V108H552.94Z" fill="#131313"/>
<path d="M505.242 109.664C499.788 109.664 495.074 108.786 491.099 107.029C487.124 105.273 484.074 102.777 481.948 99.542C479.822 96.2143 478.759 92.2857 478.759 87.7564C478.759 83.5043 479.729 79.7607 481.671 76.5254C483.612 73.1977 486.57 70.4246 490.544 68.2061C494.612 65.9877 499.649 64.4163 505.658 63.4919L528.813 59.7482V75.0002L509.401 78.4665C506.443 79.0212 504.179 79.9917 502.607 81.3783C501.036 82.6724 500.25 84.5673 500.25 87.0631C500.25 89.374 501.128 91.1765 502.885 92.4706C504.641 93.7647 506.813 94.4118 509.401 94.4118C512.822 94.4118 515.826 93.6723 518.414 92.1933C521.002 90.7143 522.989 88.727 524.376 86.2312C525.855 83.643 526.594 80.8237 526.594 77.7733V58.0844C526.594 55.2189 525.439 52.8155 523.128 50.8744C520.91 48.9332 517.859 47.9626 513.977 47.9626C510.28 47.9626 506.998 48.9794 504.133 51.013C501.359 53.0466 499.326 55.7273 498.032 59.055L481.393 51.1517C482.872 46.8996 485.229 43.2484 488.465 40.198C491.7 37.1476 495.582 34.7905 500.112 33.1266C504.641 31.4628 509.586 30.6309 514.948 30.6309C521.326 30.6309 526.964 31.7863 531.863 34.0972C536.762 36.4081 540.552 39.6434 543.233 43.803C546.006 47.8702 547.393 52.6307 547.393 58.0844V108H527.981V95.7983L532.695 94.9664C530.477 98.2941 528.027 101.067 525.347 103.286C522.666 105.412 519.662 106.983 516.334 108C513.006 109.109 509.309 109.664 505.242 109.664Z" fill="#131313"/>
<path d="M435.688 109.664C429.587 109.664 424.365 108.37 420.02 105.782C415.768 103.101 412.533 99.4035 410.315 94.6893C408.096 89.975 406.987 84.4751 406.987 78.1894V32.2949H427.785V76.5256C427.785 79.3911 428.34 81.9331 429.449 84.1516C430.65 86.2776 432.314 87.9415 434.44 89.1431C436.566 90.3448 438.97 90.9456 441.65 90.9456C444.423 90.9456 446.827 90.3448 448.86 89.1431C450.986 87.9415 452.604 86.2776 453.713 84.1516C454.915 81.9331 455.516 79.3911 455.516 76.5256V32.2949H476.314V108H456.902V93.0254L458.012 96.3531C456.255 100.883 453.39 104.256 449.415 106.475C445.533 108.601 440.957 109.664 435.688 109.664Z" fill="#131313"/>
<path d="M376.532 109.664C368.213 109.664 360.956 107.723 354.763 103.84C348.662 99.8655 344.503 94.5504 342.284 87.895L357.536 80.685C359.477 84.7522 362.112 87.9412 365.439 90.2522C368.767 92.5631 372.465 93.7185 376.532 93.7185C379.49 93.7185 381.754 93.1177 383.326 91.916C384.897 90.7143 385.683 89.0505 385.683 86.9245C385.683 85.8152 385.406 84.8909 384.851 84.1514C384.296 83.3194 383.464 82.58 382.355 81.9329C381.246 81.2858 379.859 80.7312 378.196 80.2691L365.301 76.664C359.108 74.9078 354.347 72.0885 351.019 68.2061C347.692 64.2314 346.028 59.5634 346.028 54.2021C346.028 49.4878 347.23 45.3744 349.633 41.8618C352.036 38.3493 355.41 35.6224 359.755 33.6813C364.099 31.6477 369.091 30.6309 374.729 30.6309C382.124 30.6309 388.595 32.3871 394.141 35.8997C399.779 39.3199 403.754 44.1728 406.065 50.4584L390.674 57.6684C389.565 54.5256 387.532 52.0298 384.574 50.1811C381.708 48.2399 378.427 47.2694 374.729 47.2694C372.049 47.2694 369.923 47.824 368.351 48.9332C366.872 50.0424 366.133 51.5676 366.133 53.5088C366.133 54.5256 366.41 55.45 366.965 56.2819C367.519 57.1138 368.397 57.8533 369.599 58.5004C370.893 59.1474 372.465 59.7482 374.313 60.3029L386.376 63.9079C392.662 65.7566 397.469 68.5759 400.796 72.3658C404.124 76.0632 405.788 80.6388 405.788 86.0925C405.788 90.8068 404.54 94.9202 402.044 98.4327C399.641 101.945 396.267 104.718 391.922 106.752C387.578 108.693 382.448 109.664 376.532 109.664Z" fill="#131313"/>
<path d="M277.298 108V50.3201H264.542V32.2951H277.298V31.1859C277.298 25.1775 278.453 20.0935 280.764 15.9339C283.167 11.7743 286.588 8.58523 291.024 6.36676C295.461 4.1483 300.823 3.03906 307.108 3.03906C308.31 3.03906 309.604 3.1315 310.991 3.31637C312.377 3.40881 313.533 3.54746 314.457 3.73233V21.4801C313.533 21.2952 312.701 21.2028 311.961 21.2028C311.314 21.1103 310.621 21.0641 309.881 21.0641C305.999 21.0641 303.041 21.9422 301.008 23.6985C299.066 25.3624 298.096 27.8582 298.096 31.1859V32.2951H328.184V50.3201H298.096V108H277.298ZM322.083 108V32.2951H342.881V108H322.083Z" fill="#131313"/>
<path d="M229.555 109.664C221.513 109.664 214.534 107.907 208.618 104.395C202.702 100.79 198.127 95.9832 194.891 89.9748C191.656 83.9665 190.039 77.3111 190.039 70.0086C190.039 62.4289 191.702 55.681 195.03 49.7651C198.45 43.8492 203.026 39.1812 208.757 35.7611C214.488 32.3409 220.958 30.6309 228.168 30.6309C234.177 30.6309 239.492 31.6014 244.114 33.5426C248.735 35.3913 252.618 38.0257 255.761 41.4459C258.996 44.866 261.445 48.8408 263.109 53.3701C264.773 57.8071 265.605 62.66 265.605 67.9288C265.605 69.4078 265.513 70.8868 265.328 72.3658C265.235 73.7523 265.004 74.954 264.635 75.9708H207.925V60.7188H252.849L243.004 67.9288C243.929 63.9541 243.883 60.4415 242.866 57.3911C241.849 54.2483 240.047 51.7987 237.458 50.0424C234.963 48.1937 231.866 47.2694 228.168 47.2694C224.563 47.2694 221.467 48.1475 218.879 49.9038C216.29 51.6601 214.349 54.2483 213.055 57.6684C211.761 61.0886 211.253 65.2482 211.53 70.1473C211.16 74.3994 211.669 78.143 213.055 81.3783C214.442 84.6136 216.568 87.1555 219.433 89.0043C222.299 90.7606 225.765 91.6387 229.832 91.6387C233.53 91.6387 236.673 90.8992 239.261 89.4202C241.941 87.9412 244.021 85.9077 245.5 83.3194L262.139 91.2227C260.66 94.9202 258.303 98.1554 255.067 100.929C251.925 103.702 248.181 105.874 243.836 107.445C239.492 108.924 234.731 109.664 229.555 109.664Z" fill="#131313"/>
<path d="M180.901 108.832C171.75 108.832 164.633 106.383 159.549 101.484C154.557 96.492 152.061 89.5593 152.061 80.6855V50.3202L140 50.0002L139.305 32.2952H139.998C143.881 32.2952 146.839 31.3246 148.872 29.3834C150.998 27.4423 152.061 24.5305 152.061 20.6482V15.1021H172.859V32.2952H190.607V50.3202H172.859V79.2989C172.859 81.8871 173.322 84.0594 174.246 85.8157C175.17 87.4795 176.603 88.7274 178.544 89.5593C180.485 90.3913 182.889 90.8072 185.754 90.8072C186.401 90.8072 187.141 90.761 187.973 90.6686C188.805 90.5761 189.683 90.4837 190.607 90.3913V108C189.221 108.185 187.649 108.37 185.893 108.555C184.137 108.74 182.473 108.832 180.901 108.832Z" fill="#131313"/>
<path d="M98.9482 108V32.2951H118.36V50.4588L116.973 47.8243C118.637 41.446 121.364 37.1481 125.154 34.9295C129.036 32.6185 137.725 32.2488 138.5 32.2951C139.275 32.3415 140.5 32.2951 140.5 32.2951L140 50.0001H136.5C131.416 50.0001 127.603 51.0595 124.461 54.2024C121.318 57.2529 119.746 61.5971 119.746 67.2359V108H98.9482Z" fill="#131313"/>
<path d="M0 108L34.9408 4.70312H63.5036L98.4445 108H75.0119L68.0792 86.925H30.2266L23.2939 108H0ZM36.1887 68.2067H62.1171L46.3105 19.4005H52.134L36.1887 68.2067Z" fill="#131313"/>
<path d="M344.366 11.9455C344.366 18.5427 339.018 23.8909 332.42 23.8909C325.823 23.8909 320.475 18.5427 320.475 11.9455C320.475 5.34816 325.823 0 332.42 0C339.018 0 344.366 5.34816 344.366 11.9455Z" fill="#131313"/>
</svg>
