<svg width="540" height="540" viewBox="0 0 540 540" fill="none" xmlns="http://www.w3.org/2000/svg">
<path d="M0.000240926 270.002C0.191362 191.736 116.153 226.836 171.496 171.493C226.838 116.15 191.735 -0.072928 270 3.47199e-05C348.394 0.0731156 313.075 116.063 368.507 171.496C423.939 226.928 538.632 191.608 539.988 269.991C541.318 346.789 422.817 314.193 368.504 368.507C314.191 422.82 346.79 541.058 269.989 539.993C192.025 538.911 226.625 423.638 171.493 368.504C116.36 313.37 -0.190167 347.973 0.000240926 270.002Z" fill="#131313"/>
<path d="M269.998 0.000240936C348.264 0.191365 313.164 116.153 368.507 171.496C423.85 226.838 540.073 191.735 540 270C539.926 348.394 423.937 313.075 368.504 368.507C313.071 423.939 348.392 538.632 270.009 539.988C193.211 541.318 225.807 422.817 171.493 368.504C117.179 314.191 -1.05792 346.79 0.00714771 269.989C1.08833 192.025 116.362 226.625 171.496 171.493C226.629 116.36 192.026 -0.190171 269.998 0.000240936Z" fill="#131313"/>
<path d="M540 269.998C539.809 348.263 423.847 313.164 368.504 368.507C313.161 423.85 348.265 540.073 270 540C191.605 539.926 226.924 423.937 171.493 368.504C116.06 313.071 1.36741 348.392 0.0110845 270.009C-1.3178 193.211 117.182 225.807 171.496 171.493C225.809 117.179 193.21 -1.05793 270.01 0.00714775C347.974 1.08833 313.374 116.362 368.507 171.496C423.64 226.629 540.19 192.026 540 269.998Z" fill="#131313"/>
<path d="M270.002 540C191.736 539.809 226.836 423.847 171.493 368.504C116.15 313.161 -0.0729246 348.265 3.47167e-05 270C0.0731122 191.605 116.063 226.924 171.496 171.493C226.928 116.06 191.608 1.36742 269.991 0.0110847C346.789 -1.31781 314.193 117.182 368.507 171.496C422.82 225.809 541.058 193.209 539.993 270.01C538.911 347.974 423.638 313.374 368.504 368.507C313.37 423.64 347.973 540.19 270.002 540Z" fill="#131313"/>
</svg>
